<?xml version="1.0" encoding="UTF-8"?>
<svg version="1.1" xmlns="http://www.w3.org/2000/svg" width="1024" height="1024">
<path d="M0 0 C337.92 0 675.84 0 1024 0 C1024 337.92 1024 675.84 1024 1024 C686.08 1024 348.16 1024 0 1024 C0 686.08 0 348.16 0 0 Z " fill="#242424" transform="translate(0,0)"/>
<path d="M0 0 C337.92 0 675.84 0 1024 0 C1024 337.92 1024 675.84 1024 1024 C686.08 1024 348.16 1024 0 1024 C0 686.08 0 348.16 0 0 Z M469 65 C467.89914062 65.09651855 466.79828125 65.19303711 465.6640625 65.29248047 C410.81369398 70.20481494 355.80351587 86.27545504 307.00830078 111.953125 C304.75521969 113.12759761 302.48588989 114.26692021 300.21484375 115.40625 C279.66496111 125.81192073 260.39649244 138.15966992 242 152 C241.40687012 152.44150391 240.81374023 152.88300781 240.20263672 153.33789062 C227.88079163 162.51845847 216.31996936 172.61924207 205 183 C204.44199707 183.50756836 203.88399414 184.01513672 203.30908203 184.53808594 C194.90233218 192.1960293 186.89432982 200.05945241 179.31396484 208.53759766 C178.10378827 209.88448685 176.87498012 211.2145737 175.64453125 212.54296875 C169.83780528 218.84300949 164.56369998 225.49609375 159.33789062 232.27685547 C158.12112901 233.84399113 156.88205044 235.39373513 155.640625 236.94140625 C143.4650563 252.28343997 132.65992795 268.96649303 123 286 C122.56300781 286.76328613 122.12601563 287.52657227 121.67578125 288.31298828 C99.27784617 327.63977361 82.17653573 370.61264022 73 415 C72.78891602 416.01707031 72.57783203 417.03414063 72.36035156 418.08203125 C67.25684929 443.1124242 63.85935068 468.69429135 63.83203125 494.2734375 C63.82870285 495.39908112 63.82537445 496.52472473 63.82194519 497.68447876 C63.81691981 500.05250648 63.81453549 502.42054117 63.81469727 504.78857422 C63.81252645 508.33183091 63.7943659 511.87476752 63.77539062 515.41796875 C63.73875743 530.05190901 64.39887825 544.45355655 66 559 C66.07570221 559.70016235 66.15140442 560.40032471 66.22940063 561.1217041 C75.1131848 641.77888633 106.92623023 719.21866119 157 783 C158.04994141 784.34964844 158.04994141 784.34964844 159.12109375 785.7265625 C161.05295101 788.17539564 163.01596906 790.59326765 165 793 C165.80566406 793.9796875 166.61132812 794.959375 167.44140625 795.96875 C177.47485742 808.05652797 188.29501577 819.37202573 199.375 830.5 C200.11177979 831.24145264 200.84855957 831.98290527 201.60766602 832.74682617 C206.24343594 837.36900913 211.03209287 841.73902954 216 846 C217.09469873 846.96116011 218.18849616 847.92334804 219.28125 848.88671875 C227.26603299 855.86111202 235.52839119 862.35115432 244.08886719 868.60351562 C245.8488566 869.88955796 247.60061943 871.18606378 249.3515625 872.484375 C264.71546321 883.77054384 280.99645096 893.83508742 297.80224609 902.81884766 C300.02042843 904.01097897 302.22332485 905.22831811 304.42578125 906.44921875 C367.54287132 941.04250098 441.19747769 956.74704991 512.75 956.5 C514.11822496 956.49842778 515.48645007 956.49698501 516.85467529 956.4956665 C550.78449556 956.43028549 583.99917542 953.07435366 617 945 C618.0734668 944.73993164 619.14693359 944.47986328 620.25292969 944.21191406 C685.14864279 928.2276519 748.10080901 897.92956487 798.70703125 853.85400391 C800.82921767 852.00631307 802.96763859 850.182016 805.12841797 848.37963867 C813.61764697 841.26904974 821.57630151 833.73592502 829.37915039 825.8815918 C831.32150484 823.92844512 833.27442958 821.9863238 835.22851562 820.04492188 C842.28167132 812.99918885 848.82405278 805.83431113 855 798 C855.9226969 796.90959496 856.85236723 795.82499837 857.79296875 794.75 C905.45417431 740.01347681 936.58450862 671.50263362 952 601 C952.23847656 599.91058105 952.47695313 598.82116211 952.72265625 597.69873047 C959.12979685 567.68127675 961.36965986 537.77105377 961.375 507.125 C961.37690338 505.95297028 961.37880676 504.78094055 961.38076782 503.57339478 C961.37702875 483.26756928 960.37490379 463.03316444 957.3125 442.9375 C957.14516357 441.83647949 956.97782715 440.73545898 956.80541992 439.60107422 C950.0787667 397.36064878 936.56173659 356.48068952 918 318 C917.33315186 316.60273682 917.33315186 316.60273682 916.65283203 315.17724609 C900.79946228 282.07457598 880.58453868 251.11374939 857 223 C856.17242188 221.99839844 855.34484375 220.99679688 854.4921875 219.96484375 C841.88825466 204.79029538 828.3234797 189.67215709 813.2421875 176.90625 C811.43131772 175.3666952 809.65363477 173.80355711 807.8828125 172.21875 C751.68551949 122.21288194 681.22899066 88.8933334 608 73 C606.90212158 72.75016357 605.80424316 72.50032715 604.6730957 72.24291992 C595.47979362 70.18708354 586.26393732 68.71653501 576.9375 67.4375 C576.15620728 67.32983307 575.37491455 67.22216614 574.56994629 67.11123657 C539.35890623 62.30547295 504.37165826 61.72996388 469 65 Z " fill="#FBFBFB" transform="translate(0,0)"/>
<path d="M0 0 C4.14327184 2.25631664 6.69711307 5.08172615 8.8125 9.3125 C8.89760205 11.2718604 8.91967656 13.23412794 8.91015625 15.1953125 C8.90532227 16.94521484 8.90532227 16.94521484 8.90039062 18.73046875 C8.88782227 20.56544922 8.88782227 20.56544922 8.875 22.4375 C8.87048828 23.66855469 8.86597656 24.89960938 8.86132812 26.16796875 C8.8495133 29.21619392 8.83304028 32.26432314 8.8125 35.3125 C9.47781738 35.29155273 10.14313477 35.27060547 10.82861328 35.24902344 C13.86475302 35.16549391 16.90065043 35.11372397 19.9375 35.0625 C20.98421875 35.02898437 22.0309375 34.99546875 23.109375 34.9609375 C30.48253094 34.86760641 34.18281257 35.91351304 39.65625 41.0390625 C41.41101439 44.48930871 41.32550123 47.90414217 41.3125 51.6875 C41.34085938 52.43 41.36921875 53.1725 41.3984375 53.9375 C41.41288139 58.02512171 41.02411769 60.56485046 38.40625 63.7890625 C34.85602635 67.24304515 33.19641369 67.45098739 28.3671875 67.62890625 C27.29082031 67.67080078 26.21445312 67.71269531 25.10546875 67.75585938 C23.97753906 67.79517578 22.84960938 67.83449219 21.6875 67.875 C20.55183594 67.91818359 19.41617188 67.96136719 18.24609375 68.00585938 C15.43504739 68.11215945 12.6237901 68.21285397 9.8125 68.3125 C9.4825 75.5725 9.1525 82.8325 8.8125 90.3125 C10.4625 90.9725 12.1125 91.6325 13.8125 92.3125 C20.50572938 96.73596374 25.05061545 102.80967351 27.8125 110.3125 C28.60762851 114.29518474 29.23918169 118.29237901 29.8125 122.3125 C30.91537354 122.29155273 32.01824707 122.27060547 33.15454102 122.24902344 C37.31993167 122.17559521 41.48526762 122.13033412 45.65112305 122.09277344 C47.440284 122.07288853 49.22938201 122.04577062 51.01831055 122.01074219 C64.64990058 121.75087448 78.4512583 121.68490894 89.8125 130.3125 C90.5390625 132.5390625 90.5390625 132.5390625 90.4375 134.9375 C90.42976562 135.71351563 90.42203125 136.48953125 90.4140625 137.2890625 C88.81843472 145.30864626 84.70683672 152.83019199 81.1015625 160.11328125 C80.656418 161.02020218 80.2112735 161.92712311 79.75263977 162.86152649 C78.80548823 164.79031426 77.85672827 166.71831292 76.90646362 168.64556885 C74.92134685 172.67188961 72.94435568 176.70218063 70.96696472 180.7322998 C69.97810918 182.74754759 68.9888632 184.76260384 67.9992218 186.77746582 C64.1791741 194.55632597 60.38119623 202.34553464 56.61322021 210.14974976 C55.78118531 211.87291447 54.94750923 213.59528644 54.11376953 215.31762695 C50.91854936 221.94097744 47.82449899 228.6038435 44.8125 235.3125 C45.8746875 235.32667969 46.936875 235.34085938 48.03125 235.35546875 C61.56637398 235.72984452 61.56637398 235.72984452 67.234375 239.5703125 C72.47856642 245.35969214 73.45602779 250.24140895 73.3125 257.8125 C73.33570313 259.03646484 73.33570313 259.03646484 73.359375 260.28515625 C73.31855141 266.64343116 71.90264834 271.02997102 67.43603516 275.7746582 C61.94776295 280.72018338 56.63011504 281.57320972 49.4375 281.4375 C48.19226563 281.41945313 46.94703125 281.40140625 45.6640625 281.3828125 C44.25253906 281.34800781 44.25253906 281.34800781 42.8125 281.3125 C42.76528459 288.79956926 42.73019371 296.28662237 42.70887566 303.77380848 C42.69862255 307.2538017 42.68482204 310.73369015 42.66162109 314.21362305 C42.30083824 369.86643044 47.77136342 430.43935862 74.34375 480.390625 C75.8125 483.3125 75.8125 483.3125 75.8125 485.3125 C77.7615625 485.2196875 77.7615625 485.2196875 79.75 485.125 C86.40226788 485.14591908 91.58682085 486.84271188 97.125 490.5 C102.1272849 495.73494931 104.04153565 500.14855908 104.3125 507.4375 C104.1211165 512.50278325 103.40280496 515.53323162 99.8125 519.3125 C95.08353612 523.13885481 91.35321847 523.89220474 85.43141174 523.83389282 C84.60226303 523.84154392 83.77311431 523.84919501 82.91883987 523.85707796 C80.14818856 523.87767019 77.37837145 523.86976752 74.60766602 523.86181641 C72.61815628 523.87051317 70.62865324 523.88088031 68.63916016 523.89279175 C63.24038176 523.9195666 57.84188343 523.92072983 52.44305158 523.91566515 C47.93500195 523.9135255 43.42700897 523.92329294 38.91897148 523.93287599 C28.28374712 523.95506425 17.64866404 523.95594209 7.01342773 523.94384766 C-3.95669329 523.93176421 -14.92630153 523.95639997 -25.89633507 523.99898779 C-35.31732753 524.03421652 -44.73815674 524.04622315 -54.15921265 524.03971231 C-59.78495322 524.03608594 -65.41032793 524.04136526 -71.03600883 524.06914139 C-76.32628106 524.09428439 -81.61575361 524.09042438 -86.90601349 524.06431961 C-88.84621259 524.05958592 -90.78646785 524.0650655 -92.72660255 524.08156586 C-95.37847177 524.10249118 -98.02765497 524.08631766 -100.6794281 524.0609436 C-101.444808 524.07569217 -102.21018789 524.09044074 -102.99876112 524.10563624 C-108.28319626 523.99946314 -110.97433077 522.44218451 -114.81765133 518.84702432 C-118.66581774 514.53625257 -118.67776853 509.61380143 -118.56640625 504.09765625 C-117.76349245 498.19582597 -114.47018468 494.59518468 -110.375 490.5 C-105.1777308 486.93324663 -100.92935292 485.23195778 -94.625 485.5 C-92.30122074 485.39008239 -92.30122074 485.39008239 -90.1875 484.3125 C-86.93072105 480.07592739 -85.10756557 475.25221889 -83.1875 470.3125 C-82.8692627 469.51553711 -82.55102539 468.71857422 -82.22314453 467.89746094 C-76.47141844 453.35112389 -72.14924982 438.43136656 -68.1875 423.3125 C-67.80295654 421.8903418 -67.80295654 421.8903418 -67.41064453 420.43945312 C-65.2963831 412.39205397 -63.92898021 404.28379764 -62.6875 396.0625 C-62.47107927 394.65412633 -62.25460722 393.24576055 -62.03808594 391.83740234 C-59.20509629 373.25716721 -56.46700191 354.54505176 -55.6875 335.75 C-55.62767944 334.35575806 -55.62767944 334.35575806 -55.56665039 332.93334961 C-54.87817096 315.73478454 -54.57192063 298.51995868 -54.1875 281.3125 C-55.94670776 281.33860352 -55.94670776 281.33860352 -57.74145508 281.36523438 C-59.29247688 281.37930792 -60.84350256 281.3929575 -62.39453125 281.40625 C-63.55184753 281.42510254 -63.55184753 281.42510254 -64.73254395 281.44433594 C-70.37255386 281.48059638 -74.79002979 281.18392412 -79.1875 277.3125 C-84.05287496 272.42725435 -85.9200947 268.33478725 -85.91015625 261.4375 C-85.87792969 260.53 -85.84570312 259.6225 -85.8125 258.6875 C-85.82216797 257.31464844 -85.82216797 257.31464844 -85.83203125 255.9140625 C-85.74174517 250.2342476 -84.9937043 246.78339071 -81.1875 242.3125 C-75.82913797 237.59203821 -72.55883016 237.17617509 -65.5625 237.25 C-64.76070313 237.25451172 -63.95890625 237.25902344 -63.1328125 237.26367188 C-61.15100994 237.27546832 -59.16924567 237.29340395 -57.1875 237.3125 C-57.55399658 236.55445068 -57.92049316 235.79640137 -58.2980957 235.01538086 C-59.71213851 232.09002605 -61.12579242 229.16448399 -62.53915405 226.23880005 C-63.18261484 224.90693739 -63.8261909 223.57513042 -64.46987915 222.24337769 C-70.84512546 209.05212288 -70.84512546 209.05212288 -73.8984375 202.6015625 C-74.72383187 200.85931508 -75.54935131 199.11712691 -76.375 197.375 C-76.78983643 196.4986792 -77.20467285 195.6223584 -77.63208008 194.71948242 C-80.66077086 188.37420249 -83.80503711 182.09285373 -86.98828125 175.82421875 C-87.85203219 174.11778894 -88.71571983 172.41132709 -89.5793457 170.70483398 C-91.28394151 167.33770315 -93.00192084 163.97785896 -94.72729492 160.62133789 C-103.82960117 142.75467892 -103.82960117 142.75467892 -104.375 132.9375 C-102.40757923 128.58846461 -99.47813787 127.15511696 -95.1875 125.3125 C-83.74166301 122.05264999 -72.55589899 121.94152449 -60.75 122.125 C-59.03581923 122.14009505 -57.3216254 122.15377481 -55.60742188 122.16601562 C-51.46711639 122.19859151 -47.32745891 122.25009821 -43.1875 122.3125 C-43.04957031 121.22751221 -42.91164063 120.14252441 -42.76953125 119.0246582 C-41.10596177 108.41451814 -34.11633962 98.32088369 -26.1875 91.3125 C-25.5275 91.3125 -24.8675 91.3125 -24.1875 91.3125 C-24.5175 83.7225 -24.8475 76.1325 -25.1875 68.3125 C-32.44137943 68.22120069 -32.44137943 68.22120069 -39.69555664 68.19482422 C-45.87692038 68.02201774 -49.49124335 67.23778786 -53.93554688 62.82006836 C-57.32791423 58.73507062 -57.57859548 54.66282789 -57.43359375 49.51953125 C-56.89084029 44.65198038 -54.73878171 41.60131389 -51.125 38.5 C-47.49236954 35.79484966 -45.82639047 35.18281466 -41.3984375 34.99609375 C-40.45742188 34.95419922 -39.51640625 34.91230469 -38.546875 34.86914062 C-37.56203125 34.82982422 -36.5771875 34.79050781 -35.5625 34.75 C-34.56992187 34.70681641 -33.57734375 34.66363281 -32.5546875 34.61914062 C-30.09910162 34.51288931 -27.64341297 34.41085036 -25.1875 34.3125 C-25.1781543 33.61688965 -25.16880859 32.9212793 -25.15917969 32.20458984 C-25.10526454 29.031525 -25.02165827 25.8599009 -24.9375 22.6875 C-24.92332031 21.59308594 -24.90914063 20.49867188 -24.89453125 19.37109375 C-24.66656685 11.8482684 -23.86723742 8.10020038 -18.58984375 2.66796875 C-12.63287648 -2.08171982 -7.08319576 -3.27729953 0 0 Z " fill="#FBFBFB" transform="translate(519.1875,181.6875)"/>
<path d="M0 0 C2.09065107 -0.00378859 4.18129962 -0.00929307 6.27194214 -0.01637268 C11.92072528 -0.03027395 17.56920202 -0.0191949 23.21796799 -0.00266147 C29.14604652 0.01124533 35.07410828 0.00472256 41.00219727 0.00120544 C50.95496526 -0.00149223 60.90761235 0.01194089 70.86035156 0.03515625 C82.34613661 0.06176309 93.8317196 0.06351136 105.31752491 0.05176789 C116.39350263 0.04096644 127.46940768 0.04719576 138.54537964 0.06132317 C143.2468336 0.06706243 147.94823402 0.06701653 152.64968872 0.06225777 C158.19185066 0.05746454 163.73379301 0.0676865 169.27591324 0.08921242 C171.3026976 0.09474859 173.32950319 0.09527495 175.35628891 0.09025955 C191.86652201 0.05454555 206.35868217 0.94742823 218.99609375 12.87670898 C226.74709227 21.19307445 230.88843329 30.60328766 230.609375 42.04467773 C229.43646987 51.56780654 226.07309084 60.77600436 222.18359375 69.50170898 C223.23546875 69.70795898 224.28734375 69.91420898 225.37109375 70.12670898 C229.85277857 71.38121711 231.53803609 73.76680405 234.18359375 77.50170898 C235.71956829 80.57365807 235.41009755 83.10415191 235.18359375 86.50170898 C233.64010602 91.13217217 231.66281632 93.34947867 227.36966705 95.67544627 C222.99628858 97.3284373 218.45409839 97.05614848 213.83496094 97.02310181 C212.69869137 97.0307529 211.5624218 97.038404 210.39171982 97.04628694 C206.58778073 97.06690957 202.78444751 97.05897014 198.98046875 97.05102539 C196.25189471 97.05753429 193.52335427 97.06995807 190.7947998 97.08200073 C184.15519489 97.1074741 177.51575182 97.11108487 170.87610626 97.10640021 C165.47919413 97.10283177 160.08233107 97.10633757 154.6854248 97.11484909 C153.91684387 97.11603947 153.14826293 97.11722985 152.35639167 97.1184563 C150.79495652 97.12087983 149.23352137 97.1233081 147.67208624 97.12574105 C133.0359679 97.1474835 118.39994178 97.14317073 103.76381826 97.13097136 C90.3766998 97.12062984 76.98987225 97.14315349 63.60281134 97.1811678 C49.85140746 97.21991697 36.10014124 97.23643822 22.3486824 97.22892129 C14.6304288 97.2250965 6.91242292 97.23007959 -0.80578613 97.25835037 C-7.37521933 97.28217029 -13.94425228 97.28499699 -20.51369095 97.26077004 C-23.86482593 97.24898656 -27.21462841 97.25005579 -30.56581116 97.27077484 C-34.20048028 97.29162799 -37.83317611 97.27557854 -41.46777344 97.25015259 C-42.52429234 97.26490116 -43.58081123 97.27964973 -44.66934586 97.29484522 C-50.78802779 97.20467274 -54.17170378 96.32575365 -58.58647537 91.98320901 C-61.37757699 88.62121754 -61.26931691 85.33766301 -61.2265625 81.11108398 C-60.54521641 76.77642505 -58.22072947 74.14251115 -54.81640625 71.50170898 C-52.83803453 70.459574 -50.84073336 69.45149831 -48.81640625 68.50170898 C-49.44869141 66.83881836 -49.44869141 66.83881836 -50.09375 65.14233398 C-50.64725225 63.6788365 -51.20063121 62.21529238 -51.75390625 60.75170898 C-52.03169922 60.02209961 -52.30949219 59.29249023 -52.59570312 58.54077148 C-52.86318359 57.83178711 -53.13066406 57.12280273 -53.40625 56.39233398 C-53.65238037 55.74296875 -53.89851074 55.09360352 -54.15209961 54.42456055 C-57.60923815 44.41778982 -57.07381585 32.75052157 -52.4921875 23.25170898 C-45.88224885 12.40463018 -36.62206734 5.19575382 -24.60134888 1.33338737 C-16.52232466 -0.44184425 -8.23332974 -0.04266001 0 0 Z " fill="#FBFBFB" transform="translate(424.81640625,724.498291015625)"/>
<path d="M0 0 C0.54889893 0.15919922 1.09779785 0.31839844 1.66333008 0.48242188 C4.27692662 1.06133993 6.71128361 1.19468571 9.38671875 1.28125 C10.40701172 1.31863281 11.42730469 1.35601562 12.47851562 1.39453125 C14.62954468 1.46522849 16.78058655 1.53553683 18.93164062 1.60546875 C19.94806641 1.64285156 20.96449219 1.68023437 22.01171875 1.71875 C22.94459717 1.74904297 23.87747559 1.77933594 24.83862305 1.81054688 C27 2 27 2 28 3 C28.08713831 4.70772358 28.10700007 6.41898649 28.09765625 8.12890625 C28.09443359 9.16337891 28.09121094 10.19785156 28.08789062 11.26367188 C28.07951172 12.35228516 28.07113281 13.44089844 28.0625 14.5625 C28.05798828 15.65498047 28.05347656 16.74746094 28.04882812 17.87304688 C28.03699826 20.58208495 28.02051543 23.29101599 28 26 C27.34 26 26.68 26 26 26 C26 18.74 26 11.48 26 4 C19.31371183 4.11823445 19.31371183 4.11823445 12.62817383 4.27026367 C3.9380421 4.34775742 3.9380421 4.34775742 0 1 C0 0.67 0 0.34 0 0 Z " fill="#1A1A1A" transform="translate(467,247)"/>
<path d="M0 0 C2.35119399 3.52679099 2.21443452 5.02879485 2.125 9.1875 C2.10695313 10.27417969 2.08890625 11.36085938 2.0703125 12.48046875 C2.03550781 13.72763672 2.03550781 13.72763672 2 15 C-1.58642411 10.78123269 -1.34292751 8.40110822 -1 3 C-0.67 2.01 -0.34 1.02 0 0 Z " fill="#302F2F" transform="translate(65,525)"/>
<path d="M0 0 C0.33 0 0.66 0 1 0 C1.05406122 1.93719378 1.09282025 3.87481921 1.125 5.8125 C1.14820312 6.89144531 1.17140625 7.97039062 1.1953125 9.08203125 C1 12 1 12 -1 15 C-2.50913724 10.47258828 -2.77429281 5.93573202 -1 1.5 C-0.67 1.005 -0.34 0.51 0 0 Z " fill="#2B2B2B" transform="translate(66,478)"/>
<path d="M0 0 C-0.99 1.485 -0.99 1.485 -2 3 C-5.63 2.67 -9.26 2.34 -13 2 C-13 1.67 -13 1.34 -13 1 C-8.61414671 0.29826347 -4.44209357 -0.10834375 0 0 Z " fill="#2F2F2F" transform="translate(455,67)"/>
<path d="M0 0 C2.1875 0.3125 2.1875 0.3125 4 1 C2.1875 2.5625 2.1875 2.5625 0 4 C-0.99 3.67 -1.98 3.34 -3 3 C-1.75 1.4375 -1.75 1.4375 0 0 Z " fill="#2C2C2C" transform="translate(199,188)"/>
<path d="M0 0 C0 0.99 0 1.98 0 3 C-3.375 3.125 -3.375 3.125 -7 3 C-7.66 2.34 -8.32 1.68 -9 1 C-5.846632 0.29925156 -3.27275026 0 0 0 Z " fill="#2C2B2B" transform="translate(440,69)"/>
</svg>
